<svg width="154" height="122" viewBox="0 0 154 122" fill="none" xmlns="http://www.w3.org/2000/svg">
<path fill-rule="evenodd" clip-rule="evenodd" d="M61.7585 53.7001V27.2914H99.8592V19.6779H54.1348L54.1478 58.0746C68.1045 66.1332 82.0601 74.1916 96.0165 82.2487L118.893 69.0385L118.892 0.648285H35.1085L35.1066 69.0385L57.9815 82.2473L73.1888 73.4677L65.5981 69.0844L57.9903 73.4778L42.716 64.6597L42.7219 8.26187H111.279L111.284 64.6597L96.0051 73.4806C84.5893 66.8872 73.173 60.2964 61.7585 53.7001ZM73.1917 46.341H92.2412V53.7001L80.8037 60.3052L88.3957 64.6882L99.8522 58.0746L99.8592 38.7246H73.1917V46.341ZM84.5991 88.8408L77.0001 84.4534L69.4006 88.8408L77.0001 93.2282L84.5991 88.8408Z" fill="#C61D35"/>
<path fill-rule="evenodd" clip-rule="evenodd" d="M147.585 121.95C146.261 121.95 144.995 121.726 143.786 121.276C142.577 120.828 141.458 120.137 140.429 119.206L142.243 117.049C143.076 117.768 143.917 118.32 144.767 118.704C145.616 119.087 146.58 119.28 147.658 119.28C148.589 119.28 149.329 119.084 149.876 118.692C150.423 118.299 150.696 117.777 150.696 117.123V117.074C150.696 116.764 150.643 116.491 150.537 116.253C150.431 116.016 150.235 115.792 149.949 115.579C149.659 115.367 149.266 115.172 148.769 114.991C148.266 114.812 147.617 114.631 146.816 114.452C145.898 114.24 145.085 113.999 144.371 113.73C143.66 113.46 143.059 113.133 142.577 112.749C142.095 112.365 141.724 111.896 141.471 111.34C141.217 110.785 141.091 110.115 141.091 109.331V109.282C141.091 108.547 141.238 107.873 141.528 107.26C141.821 106.647 142.222 106.125 142.732 105.692C143.243 105.259 143.856 104.92 144.574 104.675C145.289 104.43 146.073 104.307 146.922 104.307C148.18 104.307 149.312 104.491 150.317 104.859C151.322 105.226 152.265 105.761 153.147 106.464L151.529 108.743C150.746 108.171 149.969 107.734 149.202 107.432C148.433 107.13 147.658 106.979 146.874 106.979C145.991 106.979 145.306 107.174 144.815 107.567C144.326 107.959 144.08 108.441 144.08 109.012V109.062C144.08 109.388 144.138 109.678 144.252 109.931C144.366 110.185 144.574 110.413 144.876 110.618C145.183 110.822 145.599 111.013 146.13 111.193C146.665 111.374 147.339 111.561 148.16 111.757C149.059 111.985 149.859 112.239 150.553 112.516C151.248 112.794 151.827 113.133 152.285 113.534C152.742 113.933 153.093 114.399 153.331 114.93C153.568 115.461 153.686 116.077 153.686 116.78V116.829C153.686 117.63 153.535 118.349 153.236 118.985C152.934 119.623 152.518 120.161 151.983 120.604C151.452 121.044 150.807 121.379 150.059 121.608C149.308 121.836 148.483 121.95 147.585 121.95ZM122.198 104.553H124.987L134.156 116.412V104.553H137.145V121.706H134.626L125.188 109.503V121.706H122.198V104.553ZM108.916 104.43H111.71L119.257 121.706H116.072L114.332 117.564H106.221L104.457 121.706H101.37L108.916 104.43ZM113.23 114.893L110.264 108.032L107.324 114.893H113.23ZM95.2428 104.553H98.2328V121.706H95.2428V104.553ZM75.9091 104.553H82.3049C83.6447 104.553 84.8736 104.769 85.9932 105.202C87.1115 105.634 88.0754 106.236 88.884 107.003C89.6929 107.771 90.3176 108.673 90.7585 109.711C91.2001 110.748 91.4205 111.871 91.4205 113.08V113.129C91.4205 114.338 91.2001 115.465 90.7585 116.51C90.3176 117.556 89.6929 118.463 88.884 119.231C88.0754 119.999 87.1115 120.604 85.9932 121.044C84.8736 121.485 83.6447 121.706 82.3049 121.706H75.9091V104.553ZM82.2807 118.985C83.1785 118.985 83.9955 118.843 84.7309 118.556C85.466 118.267 86.0913 117.866 86.6058 117.348C87.1196 116.833 87.5203 116.216 87.8062 115.501C88.0925 114.791 88.2352 114.015 88.2352 113.178V113.129C88.2352 112.292 88.0925 111.512 87.8062 110.793C87.5203 110.07 87.1196 109.45 86.6058 108.935C86.0913 108.416 85.466 108.012 84.7309 107.714C83.9955 107.42 83.1785 107.273 82.2807 107.273H78.8992V118.985H82.2807ZM58.1931 104.553H65.8388C66.9166 104.553 67.8722 104.704 68.7054 105.005C69.5387 105.308 70.2323 105.729 70.7876 106.268C71.2457 106.741 71.5965 107.289 71.8422 107.91C72.087 108.53 72.2093 109.216 72.2093 109.968V110.017C72.2093 110.719 72.1075 111.353 71.9024 111.916C71.6991 112.48 71.4176 112.978 71.0575 113.411C70.6985 113.844 70.2692 114.211 69.7708 114.514C69.2733 114.816 68.7215 115.048 68.117 115.212L72.7482 121.706H69.1951L64.9686 115.727H64.9192H61.1824V121.706H58.1931V104.553ZM65.6056 113.055C66.6872 113.055 67.5492 112.799 68.1864 112.28C68.8278 111.765 69.1463 111.063 69.1463 110.177V110.127C69.1463 109.192 68.8359 108.482 68.2108 107.999C67.5905 107.513 66.7124 107.273 65.5803 107.273H61.1824V113.055H65.6056ZM44.9114 104.43H47.7052L55.2527 121.706H52.0665L50.3273 117.564H42.2167L40.452 121.706H37.3638L44.9114 104.43ZM49.224 114.893L46.2594 108.032L43.3189 114.893H49.224ZM27.3178 121.976C26.2066 121.976 25.2023 121.816 24.3036 121.497C23.4055 121.178 22.637 120.701 22.0001 120.064C21.3629 119.426 20.8724 118.638 20.5298 117.699C20.1869 116.76 20.0149 115.669 20.0149 114.427V104.553H23.0048V114.305C23.0048 115.906 23.393 117.123 24.165 117.956C24.9359 118.789 26.0024 119.206 27.3663 119.206C28.714 119.206 29.7713 118.805 30.5444 118.006C31.3155 117.205 31.7035 116.013 31.7035 114.427V104.553H34.6934V114.281C34.6934 115.555 34.5177 116.674 34.1659 117.638C33.8151 118.602 33.321 119.407 32.6841 120.052C32.0471 120.697 31.2751 121.178 30.3681 121.497C29.4619 121.816 28.4442 121.976 27.3178 121.976ZM9.20844 122C7.86949 122 6.65221 121.775 5.55721 121.326C4.4631 120.876 3.52817 120.256 2.75179 119.463C1.97604 118.671 1.37596 117.74 0.951309 116.67C0.526443 115.6 0.313904 114.436 0.313904 113.178V113.129C0.313904 111.937 0.529968 110.801 0.967346 109.723C1.40451 108.645 2.01666 107.702 2.80469 106.893C3.59294 106.085 4.53249 105.443 5.61935 104.97C6.70532 104.495 7.89409 104.259 9.18427 104.259C9.93564 104.259 10.6176 104.312 11.2304 104.418C11.8432 104.524 12.4108 104.675 12.9336 104.871C13.4564 105.068 13.9505 105.308 14.4157 105.594C14.8816 105.88 15.335 106.21 15.7762 106.586L13.865 108.866C13.5383 108.588 13.2026 108.334 12.8599 108.106C12.5171 107.877 12.157 107.685 11.782 107.531C11.4059 107.375 10.9937 107.252 10.5438 107.162C10.095 107.072 9.60101 107.028 9.06174 107.028C8.27745 107.028 7.54674 107.191 6.86913 107.518C6.19066 107.844 5.60223 108.285 5.10446 108.832C4.60603 109.379 4.21367 110.021 3.92758 110.761C3.64233 111.496 3.49942 112.276 3.49942 113.092V113.141C3.49942 114.023 3.63795 114.844 3.91594 115.596C4.19391 116.351 4.5854 116.997 5.10008 117.536C5.61496 118.075 6.22318 118.503 6.93391 118.815C7.64487 119.124 8.43642 119.28 9.31908 119.28C10.1317 119.28 10.8958 119.161 11.6022 118.924C12.3129 118.683 12.9257 118.369 13.4485 117.972V114.747H9.06174V112.125H16.3635V119.328C15.9389 119.688 15.4692 120.031 14.9556 120.358C14.4408 120.685 13.8848 120.971 13.2891 121.215C12.6925 121.46 12.051 121.653 11.3652 121.791C10.6786 121.93 9.95979 122 9.20844 122Z" fill="white"/>
</svg>
