<svg width="25" height="25" viewBox="0 0 25 25" fill="none" xmlns="http://www.w3.org/2000/svg">
<path fill-rule="evenodd" clip-rule="evenodd" d="M24.2732 24.2734C23.8262 24.7204 23.1558 24.7204 22.7091 24.2734L21.4124 22.9768C18.5263 20.0907 13.7516 20.261 9.67308 20.104C7.22958 20.01 4.81257 19.03 2.93296 17.1788C-0.977654 13.2682 -0.977654 6.89939 2.93296 2.93297C6.84357 -0.977655 13.2124 -0.977655 17.1788 2.93297C19.0598 4.81395 20.0393 7.23287 20.1249 9.67796C20.2676 13.7572 20.0907 18.5264 22.9769 21.4126L24.2734 22.7091C24.7204 23.1558 24.7201 23.8825 24.2732 24.2734ZM15.6142 4.55337C12.5417 1.48091 7.62527 1.48091 4.55309 4.55337C1.48063 7.62582 1.48063 12.5422 4.55309 15.6144C7.62555 18.6869 12.542 18.6869 15.6142 15.6144C18.6868 12.542 18.6868 7.62608 15.6142 4.55337Z" fill="#C61D35"/>
</svg>
