<svg width="36" height="32" viewBox="0 0 36 32" fill="none" xmlns="http://www.w3.org/2000/svg">
<path d="M30.4675 0.132324H23.5728V4.36537H30.4675V10.7147H35.0641V4.36537C35.0641 3.24261 34.58 2.16604 33.7179 1.37207C32.8559 0.57811 31.6867 0.132324 30.4675 0.132324Z" fill="white"/>
<path d="M0.589844 4.36525V10.7146H5.18651V4.36525H12.0812V0.132202H5.18651C3.96729 0.132202 2.79823 0.578058 1.93608 1.37194C1.07393 2.16583 0.589844 3.24249 0.589844 4.36525Z" fill="white"/>
<path d="M5.18639 21.2971H0.589722V27.6465C0.589722 28.7692 1.07387 29.8458 1.93596 30.6398C2.79803 31.4337 3.96716 31.8795 5.18639 31.8795H12.0811V27.6465H5.18639V21.2971Z" fill="white"/>
<path d="M30.4675 27.6466H23.5728V31.8797H30.4675C31.6867 31.8797 32.8557 31.4338 33.7179 30.64C34.58 29.846 35.0641 28.7694 35.0641 27.6466V21.2972H30.4675V27.6466Z" fill="white"/>
<path d="M15.5287 13.8895H20.1253V18.1225H15.5287V13.8895Z" fill="white"/>
<path d="M20.1252 9.65643H24.7219V13.8895H20.1252V9.65643Z" fill="white"/>
<path d="M10.932 9.65643H15.5287V13.8895H10.932V9.65643Z" fill="white"/>
<path d="M20.1252 18.1224H24.7219V22.3555H20.1252V18.1224Z" fill="white"/>
<path d="M10.932 18.1224H15.5287V22.3555H10.932V18.1224Z" fill="white"/>
</svg>
